<svg width="275" height="275" viewBox="0 0 275 275" fill="none" xmlns="http://www.w3.org/2000/svg">
<mask id="path-1-inside-1_53_640" fill="white">
<path d="M37.1803 84.0042C25.5784 77.8174 21.0404 63.2291 29.1335 52.8666C43.7665 34.1303 63.0997 19.3949 85.3469 10.275C107.594 1.15506 131.707 -1.9198 155.281 1.15417C168.319 2.8543 175.327 16.4303 171.406 28.9804C167.485 41.5305 154.05 48.1779 140.912 47.6792C128.168 47.1955 115.375 49.4255 103.407 54.3314C91.4397 59.2373 80.7621 66.629 72.0251 75.9182C63.0168 85.4959 48.7823 90.1909 37.1803 84.0042Z"/>
</mask>
<path d="M37.1803 84.0042C25.5784 77.8174 21.0404 63.2291 29.1335 52.8666C43.7665 34.1303 63.0997 19.3949 85.3469 10.275C107.594 1.15506 131.707 -1.9198 155.281 1.15417C168.319 2.8543 175.327 16.4303 171.406 28.9804C167.485 41.5305 154.05 48.1779 140.912 47.6792C128.168 47.1955 115.375 49.4255 103.407 54.3314C91.4397 59.2373 80.7621 66.629 72.0251 75.9182C63.0168 85.4959 48.7823 90.1909 37.1803 84.0042Z" stroke="#2BBA40" stroke-width="50" mask="url(#path-1-inside-1_53_640)"/>
<mask id="path-2-inside-2_53_640" fill="white">
<path d="M179.205 31.7321C184.028 19.5002 198.003 13.328 209.221 20.1862C225.687 30.2529 239.928 43.7223 250.936 59.7905C261.943 75.8586 269.36 94.0035 272.8 112.994C275.143 125.932 264.34 136.734 251.192 136.814C238.043 136.893 227.627 126.115 224.108 113.447C221.473 103.958 217.282 94.9139 211.655 86.7003C206.028 78.4867 199.109 71.3119 191.212 65.4271C180.669 57.5702 174.382 43.964 179.205 31.7321Z"/>
</mask>
<path d="M179.205 31.7321C184.028 19.5002 198.003 13.328 209.221 20.1862C225.687 30.2529 239.928 43.7223 250.936 59.7905C261.943 75.8586 269.36 94.0035 272.8 112.994C275.143 125.932 264.34 136.734 251.192 136.814C238.043 136.893 227.627 126.115 224.108 113.447C221.473 103.958 217.282 94.9139 211.655 86.7003C206.028 78.4867 199.109 71.3119 191.212 65.4271C180.669 57.5702 174.382 43.964 179.205 31.7321Z" stroke="#2BBA40" stroke-width="50" mask="url(#path-2-inside-2_53_640)"/>
<path fill-rule="evenodd" clip-rule="evenodd" d="M3.22683 107.886C6.05886 95.0463 20.195 89.2507 32.3548 94.2519C44.5144 99.2534 49.9643 113.217 48.3206 126.262L48.2093 127.18C47.6784 131.772 47.5009 136.412 47.6848 141.057C48.1964 153.974 51.4888 166.629 57.3362 178.158C60.0538 183.516 63.2949 188.572 67.0003 193.258V193.409L67.7796 194.23C71.8592 199.244 76.4792 203.819 81.5686 207.864C82.9443 208.958 84.3511 210.008 85.7844 211.017C90.4996 214.966 96.0348 219.3 102.12 223.506C111.635 230.081 122.729 236.507 134.313 240.589C145.86 244.657 158.498 246.604 170.702 243.396C176.975 241.748 183.942 238.502 189.034 235.889C191.649 234.547 193.906 233.301 195.513 232.388C196.318 231.93 196.963 231.554 197.413 231.289C197.638 231.156 197.815 231.051 197.939 230.977C198 230.941 198.05 230.911 198.084 230.891C198.102 230.88 198.116 230.871 198.126 230.865C198.131 230.862 198.136 230.859 198.139 230.857C198.141 230.856 198.143 230.855 198.144 230.854L198.145 230.853L194 224.012L198.147 230.852L211.431 222.802L197.162 216.663L187.215 212.383C187.67 212.081 188.123 211.776 188.573 211.466L189.565 210.771C199.773 203.517 208.35 194.212 214.748 183.457L215.361 182.412C217.683 178.386 219.684 174.196 221.35 169.883L221.679 169.018C226.29 156.705 237.607 146.877 250.698 148.103C263.788 149.33 273.608 161.034 270.145 173.718L269.85 174.779C266.765 185.732 262.323 196.291 256.606 206.203L255.669 207.802C245.881 224.254 232.761 238.488 217.145 249.585L215.627 250.647C199.874 261.525 182.016 268.997 163.197 272.577C144.377 276.157 125.023 275.765 106.376 271.432L104.574 271C85.9747 266.412 68.5448 257.99 53.3997 246.281L51.9407 245.138C36.9441 233.217 24.6096 218.298 15.721 201.343L14.8714 199.696C6.2059 182.611 1.20884 163.909 0.193627 144.792L0.10769 142.941C-0.359692 131.138 0.696867 119.357 3.22683 107.886ZM153.033 236.759L154.03 236.846C153.697 236.82 153.364 236.791 153.032 236.759L152.033 236.652C152.366 236.691 152.699 236.726 153.033 236.759ZM172.847 234.348C172.563 234.449 172.279 234.547 171.996 234.642L172.847 234.348ZM137.973 233.39C138.307 233.503 138.641 233.613 138.976 233.722H138.975C138.64 233.613 138.306 233.503 137.972 233.39H137.973ZM193.336 224.406C193.137 224.524 192.894 224.665 192.614 224.827C192.903 224.66 193.151 224.515 193.354 224.395L193.336 224.406Z" fill="#2BBA40"/>
<path d="M93.0015 199.5V170.961H116.935C124.392 170.961 129.856 169.653 133.324 167.039C136.966 164.424 138.787 159.979 138.787 153.704H104.001L113.001 142.592L104.001 131.48H138.787C138.787 125.205 136.966 120.76 133.324 118.146C129.856 115.531 124.392 114.224 116.935 114.224H93.0015V92H182.492V114.224H160.64C163.935 119.105 166.103 124.857 167.143 131.48H182.492L173.501 142.592L182.492 153.704H167.143C166.45 161.722 164.022 168.782 159.859 174.882C155.87 180.809 150.927 185.341 145.031 188.478C139.134 191.616 133.237 193.185 127.341 193.185L191.001 224.5C191.001 224.5 175.91 236.998 156.501 236C127.34 234.5 93.0015 199.5 93.0015 199.5Z" fill="#0D1311"/>
</svg>
