<svg width="275" height="278" viewBox="0 0 275 278" fill="none" xmlns="http://www.w3.org/2000/svg">
<mask id="path-1-inside-1_138_1083" fill="white">
<path d="M37.1798 84.0042C25.5779 77.8174 21.0399 63.2291 29.133 52.8666C43.766 34.1303 63.0992 19.3949 85.3464 10.275C107.594 1.15506 131.707 -1.9198 155.281 1.15417C168.319 2.8543 175.326 16.4303 171.405 28.9804C167.484 41.5305 154.05 48.1779 140.911 47.6792C128.168 47.1955 115.374 49.4255 103.407 54.3314C91.4392 59.2373 80.7616 66.629 72.0246 75.9182C63.0163 85.4959 48.7818 90.1909 37.1798 84.0042Z"/>
</mask>
<path d="M37.1798 84.0042C25.5779 77.8174 21.0399 63.2291 29.133 52.8666C43.766 34.1303 63.0992 19.3949 85.3464 10.275C107.594 1.15506 131.707 -1.9198 155.281 1.15417C168.319 2.8543 175.326 16.4303 171.405 28.9804C167.484 41.5305 154.05 48.1779 140.911 47.6792C128.168 47.1955 115.374 49.4255 103.407 54.3314C91.4392 59.2373 80.7616 66.629 72.0246 75.9182C63.0163 85.4959 48.7818 90.1909 37.1798 84.0042Z" stroke="#58E86D" stroke-width="50" mask="url(#path-1-inside-1_138_1083)"/>
<mask id="path-2-inside-2_138_1083" fill="white">
<path d="M179.204 31.7321C184.027 19.5002 198.002 13.328 209.22 20.1862C225.687 30.2529 239.928 43.7223 250.935 59.7905C261.943 75.8586 269.359 94.0035 272.799 112.994C275.143 125.932 264.339 136.734 251.191 136.814C238.043 136.893 227.626 126.115 224.108 113.447C221.472 103.958 217.281 94.9139 211.654 86.7003C206.028 78.4867 199.108 71.3119 191.212 65.4271C180.669 57.5702 174.381 43.964 179.204 31.7321Z"/>
</mask>
<path d="M179.204 31.7321C184.027 19.5002 198.002 13.328 209.22 20.1862C225.687 30.2529 239.928 43.7223 250.935 59.7905C261.943 75.8586 269.359 94.0035 272.799 112.994C275.143 125.932 264.339 136.734 251.191 136.814C238.043 136.893 227.626 126.115 224.108 113.447C221.472 103.958 217.281 94.9139 211.654 86.7003C206.028 78.4867 199.108 71.3119 191.212 65.4271C180.669 57.5702 174.381 43.964 179.204 31.7321Z" stroke="#58E86D" stroke-width="50" mask="url(#path-2-inside-2_138_1083)"/>
<path d="M184.991 89.5V116.724H165.027C166.959 120.438 168.358 124.528 169.237 128.98H185.547L182.477 132.998L175.146 142.592L182.477 152.187L185.547 156.204H169.387C168.423 163.681 165.947 170.387 161.931 176.277L161.932 176.278C157.731 182.52 152.488 187.342 146.205 190.686C141.698 193.084 137.144 194.633 132.555 195.303L192.372 262.843L194.858 265.649L191.311 266.865C173.672 272.913 167.497 273.958 158.792 274.982L157.44 275.142L156.573 274.092L91.0728 194.776L90.5005 194.083V168.461H116.934C124.198 168.461 128.998 167.168 131.819 165.042L131.841 165.024L131.866 165.008C134.197 163.334 135.752 160.554 136.171 156.204H98.2974L100.928 152.306L107.484 142.592L100.928 132.879L98.2974 128.98H136.171C135.752 124.631 134.197 121.85 131.866 120.177L131.841 120.16L131.819 120.143C128.998 118.016 124.198 116.724 116.934 116.724H90.5005V89.5H184.991Z" fill="white" stroke="#0D1311" stroke-width="5"/>
<path fill-rule="evenodd" clip-rule="evenodd" d="M3.22684 107.886C6.05872 95.0463 20.1949 89.2508 32.3548 94.2521C44.5145 99.2537 49.9645 113.217 48.3206 126.262L48.2093 127.18C47.6784 131.773 47.5009 136.412 47.6849 141.057C48.1964 153.974 51.4888 166.629 57.3362 178.158C63.1837 189.687 71.449 199.82 81.5686 207.864C87.2859 212.409 93.5196 216.226 100.124 219.246L146.177 274.723C132.848 275.566 119.438 274.467 106.376 271.432L104.575 271C85.9747 266.413 68.5448 257.99 53.3997 246.281L51.9407 245.138C36.944 233.217 24.6096 218.298 15.721 201.343L14.8714 199.696C6.20582 182.611 1.20886 163.909 0.19364 144.792L0.107703 142.942C-0.359715 131.138 0.696862 119.357 3.22684 107.886ZM221.679 169.019C226.289 156.705 237.607 146.878 250.698 148.104C263.789 149.33 273.608 161.034 270.145 173.718L269.85 174.779C266.765 185.732 262.323 196.291 256.606 206.203L255.669 207.802C245.881 224.254 232.761 238.488 217.145 249.585L215.627 250.648C211.006 253.839 206.201 256.735 201.246 259.327L168.045 222.034C175.296 219.414 182.198 215.867 188.573 211.466L189.565 210.772C199.773 203.518 208.35 194.212 214.748 183.457L215.361 182.412C217.683 178.386 219.684 174.196 221.35 169.883L221.679 169.019Z" fill="#58E86D"/>
</svg>
