<svg width="19" height="23" viewBox="0 0 19 23" fill="none" xmlns="http://www.w3.org/2000/svg">
<path d="M11.9067 6.67217e-08C12.3497 0.000125189 12.7816 0.152128 13.1409 0.434479C13.5003 0.716829 13.769 1.11521 13.9091 1.5732L14.4822 3.45H17.9444C18.2244 3.45 18.4929 3.57116 18.6908 3.78683C18.8888 4.00249 19 4.295 19 4.6C19 4.905 18.8888 5.19751 18.6908 5.41317C18.4929 5.62884 18.2244 5.75 17.9444 5.75L17.9413 5.83165L17.0261 19.7961C16.969 20.6662 16.6115 21.4804 16.0255 22.0749C15.4395 22.6693 14.6686 22.9999 13.8679 23H5.13211C4.33143 22.9999 3.5605 22.6693 2.97452 22.0749C2.38854 21.4804 2.031 20.6662 1.97389 19.7961L1.05872 5.8305L1.05556 5.75C0.775605 5.75 0.50712 5.62884 0.309165 5.41317C0.11121 5.19751 0 4.905 0 4.6C0 4.295 0.11121 4.00249 0.309165 3.78683C0.50712 3.57116 0.775605 3.45 1.05556 3.45H4.51778L5.09094 1.5732C5.23101 1.11503 5.4999 0.71651 5.85949 0.434142C6.21908 0.151775 6.65113 -0.00011622 7.09439 6.67217e-08H11.9067ZM15.8302 5.75H3.16983L4.07972 19.6316C4.09867 19.9217 4.21776 20.1931 4.41302 20.3914C4.60829 20.5896 4.86522 20.6999 5.13211 20.7H13.8679C14.1348 20.6999 14.3917 20.5896 14.587 20.3914C14.7822 20.1931 14.9013 19.9217 14.9203 19.6316L15.8302 5.75ZM7.38889 9.2C7.64743 9.20004 7.89697 9.30345 8.09017 9.49062C8.28337 9.6778 8.40681 9.93571 8.43706 10.2155L8.44444 10.35V16.1C8.44415 16.3931 8.34113 16.675 8.15644 16.8882C7.97175 17.1013 7.71933 17.2296 7.45075 17.2467C7.18217 17.2639 6.91771 17.1687 6.7114 16.9806C6.50509 16.7925 6.3725 16.5256 6.34072 16.2346L6.33333 16.1V10.35C6.33333 10.045 6.44454 9.75249 6.6425 9.53683C6.84045 9.32116 7.10894 9.2 7.38889 9.2ZM11.6111 9.2C11.8911 9.2 12.1595 9.32116 12.3575 9.53683C12.5555 9.75249 12.6667 10.045 12.6667 10.35V16.1C12.6667 16.405 12.5555 16.6975 12.3575 16.9132C12.1595 17.1288 11.8911 17.25 11.6111 17.25C11.3312 17.25 11.0627 17.1288 10.8647 16.9132C10.6668 16.6975 10.5556 16.405 10.5556 16.1V10.35C10.5556 10.045 10.6668 9.75249 10.8647 9.53683C11.0627 9.32116 11.3312 9.2 11.6111 9.2ZM11.9067 2.3H7.09333L6.74183 3.45H12.2582L11.9067 2.3Z" fill="#FF5656"/>
</svg>
