<svg width="28" height="17" viewBox="0 0 28 17" fill="none" xmlns="http://www.w3.org/2000/svg">
<path fill-rule="evenodd" clip-rule="evenodd" d="M3.51141 0.611954C3.12566 0.220125 2.60247 0 2.05694 0C1.5114 0 0.988212 0.220125 0.602462 0.611954C0.216712 1.00378 0 1.53521 0 2.08934C0 2.64347 0.216712 3.1749 0.602462 3.56673L7.45442 10.5245L7.46881 10.5392C8.02864 11.0961 8.78106 11.4081 9.56469 11.4081C10.3483 11.4081 11.1007 11.0961 11.6606 10.5392L11.675 10.5245L15.1719 6.97255L19.9968 12.1554L17.8588 14.3271C17.6434 14.5462 17.4968 14.8251 17.4374 15.1287C17.378 15.4323 17.4086 15.747 17.5252 16.033C17.6417 16.319 17.8391 16.5635 18.0925 16.7356C18.3458 16.9077 18.6436 16.9997 18.9483 17H26.4582C26.8671 17 27.2593 16.835 27.5484 16.5413C27.8376 16.2476 28 15.8492 28 15.4339V7.80783C27.9997 7.49827 27.9092 7.19574 27.7397 6.93845C27.5703 6.68115 27.3296 6.48063 27.048 6.36221C26.7664 6.24378 26.4566 6.21277 26.1577 6.27309C25.8588 6.3334 25.5842 6.48234 25.3686 6.70109L22.9057 9.20273L17.3469 3.22845L17.2914 3.17206C16.7315 2.6151 15.9791 2.30317 15.1955 2.30317C14.4119 2.30317 13.6595 2.6151 13.0996 3.17206L13.0852 3.18668L9.56366 6.76165L3.51141 0.611954Z" fill="#FF5656"/>
</svg>
