<svg width="13" height="13" viewBox="0 0 13 13" fill="none" xmlns="http://www.w3.org/2000/svg">
<path d="M10.946 0L12.9999 2.05393L11.4341 3.62039L9.38019 1.56646L10.946 0ZM3.4231 9.57679H5.47703L10.466 4.5878L8.4121 2.53386L3.4231 7.52286V9.57679Z" fill="#58E86E"/>
<path d="M10.9543 11.6308H3.5314C3.5136 11.6308 3.49511 11.6377 3.47731 11.6377C3.45472 11.6377 3.43212 11.6315 3.40885 11.6308H1.36929V2.0458H6.05705L7.42634 0.676514H1.36929C0.614126 0.676514 0 1.28995 0 2.0458V11.6308C0 12.3867 0.614126 13.0001 1.36929 13.0001H10.9543C11.3175 13.0001 11.6658 12.8558 11.9225 12.599C12.1793 12.3422 12.3236 11.994 12.3236 11.6308V5.69632L10.9543 7.06561V11.6308Z" fill="#58E86E"/>
</svg>
