<svg width="16" height="16" viewBox="0 0 16 16" fill="none" xmlns="http://www.w3.org/2000/svg">
<path d="M16 0H4V9.035C3.29375 8.93306 2.5732 9.04943 1.93494 9.36851C1.29668 9.68759 0.771202 10.1941 0.428924 10.8203C0.0866459 11.4464 -0.0560733 12.1622 0.0198932 12.8717C0.0958597 13.5812 0.386882 14.2506 0.853958 14.79C1.32103 15.3295 1.94184 15.7133 2.63319 15.8901C3.32453 16.0668 4.05338 16.028 4.72205 15.7788C5.39071 15.5297 5.96725 15.0821 6.37439 14.4961C6.78153 13.91 6.99982 13.2136 7 12.5V5H13V9.035C12.2937 8.93306 11.5732 9.04943 10.9349 9.36851C10.2967 9.68759 9.7712 10.1941 9.42892 10.8203C9.08665 11.4464 8.94393 12.1622 9.01989 12.8717C9.09586 13.5812 9.38688 14.2506 9.85396 14.79C10.321 15.3295 10.9418 15.7133 11.6332 15.8901C12.3245 16.0668 13.0534 16.028 13.722 15.7788C14.3907 15.5297 14.9673 15.0821 15.3744 14.4961C15.7815 13.91 15.9998 13.2136 16 12.5V0Z" fill="#FF5656"/>
</svg>
