<svg width="18" height="16" viewBox="0 0 18 16" fill="none" xmlns="http://www.w3.org/2000/svg">
<path d="M6.59455 3.26951e-05C5.04818 -0.00793939 3.54273 1.44298 4.23 3.24467H1.63636C1.20237 3.24467 0.786158 3.41265 0.47928 3.71166C0.172402 4.01067 0 4.41622 0 4.83909V6.4335C0 6.64493 0.086201 6.84771 0.23964 6.99721C0.393079 7.14672 0.601187 7.23071 0.818182 7.23071H8.18182V4.83909H9.81818V7.23071H17.1818C17.3988 7.23071 17.6069 7.14672 17.7604 6.99721C17.9138 6.84771 18 6.64493 18 6.4335V4.83909C18 4.41622 17.8276 4.01067 17.5207 3.71166C17.2138 3.41265 16.7976 3.24467 16.3636 3.24467H13.77C14.7273 0.637799 11.1273 -1.20375 9.46636 1.04438L9 1.65025L8.53364 1.02843C8.01818 0.318916 7.30636 0.00800478 6.59455 3.26951e-05ZM6.54545 1.65025C7.27364 1.65025 7.64182 2.51124 7.12636 3.01348C6.61091 3.51572 5.72727 3.15698 5.72727 2.44746C5.72727 2.23603 5.81347 2.03326 5.96691 1.88375C6.12035 1.73425 6.32846 1.65025 6.54545 1.65025ZM11.4545 1.65025C12.1827 1.65025 12.5509 2.51124 12.0355 3.01348C11.52 3.51572 10.6364 3.15698 10.6364 2.44746C10.6364 2.23603 10.7226 2.03326 10.876 1.88375C11.0294 1.73425 11.2375 1.65025 11.4545 1.65025ZM0.818182 8.02792V14.4056C0.818182 14.8284 0.990584 15.234 1.29746 15.533C1.60434 15.832 2.02055 16 2.45455 16H15.5455C15.9794 16 16.3957 15.832 16.7025 15.533C17.0094 15.234 17.1818 14.8284 17.1818 14.4056V8.02792H9.81818V14.4056H8.18182V8.02792H0.818182Z" fill="#55DF69"/>
</svg>
