<svg width="18" height="19" viewBox="0 0 18 19" fill="none" xmlns="http://www.w3.org/2000/svg">
<path d="M5 5V4C5 2.93913 5.42143 1.92172 6.17157 1.17157C6.92172 0.421427 7.93913 0 9 0C10.0609 0 11.0783 0.421427 11.8284 1.17157C12.5786 1.92172 13 2.93913 13 4V5" fill="#55DF69"/>
<path fill-rule="evenodd" clip-rule="evenodd" d="M0.586 4.586C-5.96046e-08 5.172 0 6.114 0 8V11C0 14.771 -1.19209e-07 16.657 1.172 17.828C2.344 18.999 4.229 19 8 19H10C13.771 19 15.657 19 16.828 17.828C17.999 16.656 18 14.771 18 11V8C18 6.114 18 5.172 17.414 4.586C16.828 4 15.886 4 14 4H4C2.114 4 1.172 4 0.586 4.586ZM7 9C7 8.73478 6.89464 8.48043 6.70711 8.29289C6.51957 8.10536 6.26522 8 6 8C5.73478 8 5.48043 8.10536 5.29289 8.29289C5.10536 8.48043 5 8.73478 5 9V11C5 11.2652 5.10536 11.5196 5.29289 11.7071C5.48043 11.8946 5.73478 12 6 12C6.26522 12 6.51957 11.8946 6.70711 11.7071C6.89464 11.5196 7 11.2652 7 11V9ZM13 9C13 8.73478 12.8946 8.48043 12.7071 8.29289C12.5196 8.10536 12.2652 8 12 8C11.7348 8 11.4804 8.10536 11.2929 8.29289C11.1054 8.48043 11 8.73478 11 9V11C11 11.2652 11.1054 11.5196 11.2929 11.7071C11.4804 11.8946 11.7348 12 12 12C12.2652 12 12.5196 11.8946 12.7071 11.7071C12.8946 11.5196 13 11.2652 13 11V9Z" fill="#55DF69"/>
</svg>
