<svg width="28" height="17" viewBox="0 0 28 17" fill="none" xmlns="http://www.w3.org/2000/svg">
<path fill-rule="evenodd" clip-rule="evenodd" d="M3.51141 16.388C3.12566 16.7799 2.60247 17 2.05694 17C1.5114 17 0.988213 16.7799 0.602462 16.388C0.216712 15.9962 0 15.4648 0 14.9107C0 14.3565 0.216712 13.8251 0.602462 13.4333L7.45442 6.47545L7.46881 6.46083C8.02864 5.90387 8.78106 5.59194 9.56469 5.59194C10.3483 5.59194 11.1007 5.90387 11.6606 6.46083L11.675 6.47545L15.1719 10.0274L19.9968 4.84458L17.8588 2.67287C17.6434 2.45385 17.4968 2.17491 17.4374 1.87129C17.378 1.56768 17.4086 1.25299 17.5252 0.966987C17.6417 0.680983 17.8391 0.436487 18.0925 0.26438C18.3458 0.092272 18.6436 0.000272273 18.9483 0H26.4582C26.8671 0 27.2593 0.165003 27.5484 0.45871C27.8376 0.752418 28 1.15077 28 1.56614V9.19217C27.9997 9.50173 27.9092 9.80426 27.7397 10.0616C27.5703 10.3188 27.3296 10.5194 27.048 10.6378C26.7664 10.7562 26.4566 10.7872 26.1577 10.7269C25.8588 10.6666 25.5842 10.5177 25.3686 10.2989L22.9057 7.79727L17.3469 13.7716L17.2914 13.8279C16.7315 14.3849 15.9791 14.6968 15.1955 14.6968C14.4119 14.6968 13.6595 14.3849 13.0996 13.8279L13.0852 13.8133L9.56366 10.2384L3.51141 16.388Z" fill="#58E86E"/>
</svg>
