<svg width="18" height="18" viewBox="0 0 18 18" fill="none" xmlns="http://www.w3.org/2000/svg">
<path fill-rule="evenodd" clip-rule="evenodd" d="M12.443 0.069746C12.7613 0.021181 13.0826 -0.00208566 13.4043 0.000146579C13.8018 0.000146579 14.1197 0.0305463 14.3655 0.069746C14.9343 0.161345 15.2533 0.675341 15.2705 1.19374C15.2828 1.55773 15.2966 2.09213 15.3065 2.81332C15.997 2.82372 16.5083 2.83812 16.8568 2.85092C17.3535 2.86892 17.8457 3.20212 17.933 3.79612C17.9713 4.05291 18 4.38491 18 4.80011C18 5.2153 17.9709 5.5473 17.9334 5.8041C17.8457 6.39809 17.3535 6.73129 16.8572 6.74929C16.5087 6.76209 15.997 6.77649 15.3065 6.78689C15.2997 7.32687 15.2877 7.86676 15.2705 8.40648C15.2533 8.92487 14.9343 9.43887 14.3655 9.53047C14.1197 9.56967 13.8018 9.60007 13.4043 9.60007C13.0067 9.60007 12.6889 9.56967 12.443 9.53047C11.8743 9.43887 11.5552 8.92487 11.538 8.40648C11.5257 8.04248 11.512 7.50809 11.502 6.78689C10.9851 6.77979 10.4683 6.76726 9.9517 6.74929C9.45498 6.73129 8.96285 6.39809 8.87553 5.8041C8.82876 5.4717 8.80635 5.13607 8.80851 4.80011C8.80851 4.38491 8.83762 4.05291 8.87515 3.79612C8.96285 3.20212 9.45498 2.86892 9.95132 2.85092C10.2998 2.83812 10.8115 2.82372 11.502 2.81332C11.512 2.09213 11.5257 1.55813 11.538 1.19414C11.5552 0.675341 11.8743 0.160945 12.443 0.069746ZM0.882 9.94927C0.682009 10.0145 0.504877 10.1398 0.372784 10.3097C0.240691 10.4795 0.159509 10.6863 0.139404 10.9041C0.0769787 11.5617 0 12.5808 0 13.6C0 14.5464 0.0666383 15.4932 0.126 16.15C0.149111 16.402 0.252061 16.6388 0.418546 16.8228C0.585032 17.0069 0.805539 17.1276 1.04515 17.166C2.66592 17.4384 6.32872 18 8.91689 18C10.8762 18 14.7964 16.6224 16.6293 15.9356C17.2264 15.7116 17.6653 15.1008 17.4715 14.4704C17.2114 13.6264 16.6596 13.3064 16.2781 13.1852C16.0177 13.1024 15.7446 13.136 15.4766 13.1844C14.2223 13.412 10.3649 14.0888 8.91689 14.0888C8.23404 14.0888 7.30187 13.9584 6.75613 13.8716C6.63044 13.8509 6.51603 13.7838 6.43362 13.6825C6.35121 13.5813 6.30625 13.4525 6.30689 13.3196C6.30689 12.9876 6.57804 12.7268 6.89477 12.7536L9.84945 13.0056C10.5185 13.0624 11.1071 12.5028 10.954 11.8201C10.872 11.4533 10.7625 11.1481 10.6537 10.9041C10.4262 10.3949 9.9517 10.0897 9.43047 9.94967C8.3543 9.66047 6.35821 9.20007 4.56664 9.20007C3.37366 9.20007 1.77128 9.66007 0.882 9.94927Z" fill="#55DF69"/>
</svg>
