<svg width="275" height="275" viewBox="0 0 275 275" fill="none" xmlns="http://www.w3.org/2000/svg">
<mask id="path-1-inside-1_53_584" fill="white">
<path d="M37.1798 84.0042C25.5779 77.8174 21.0399 63.2291 29.133 52.8666C43.766 34.1303 63.0992 19.3949 85.3464 10.275C107.594 1.15506 131.707 -1.9198 155.281 1.15417C168.319 2.8543 175.326 16.4303 171.405 28.9804C167.484 41.5305 154.05 48.1779 140.911 47.6792C128.168 47.1955 115.374 49.4255 103.407 54.3314C91.4392 59.2373 80.7616 66.629 72.0246 75.9182C63.0163 85.4959 48.7818 90.1909 37.1798 84.0042Z"/>
</mask>
<path d="M37.1798 84.0042C25.5779 77.8174 21.0399 63.2291 29.133 52.8666C43.766 34.1303 63.0992 19.3949 85.3464 10.275C107.594 1.15506 131.707 -1.9198 155.281 1.15417C168.319 2.8543 175.326 16.4303 171.405 28.9804C167.484 41.5305 154.05 48.1779 140.911 47.6792C128.168 47.1955 115.374 49.4255 103.407 54.3314C91.4392 59.2373 80.7616 66.629 72.0246 75.9182C63.0163 85.4959 48.7818 90.1909 37.1798 84.0042Z" stroke="#2BBA40" stroke-width="50" mask="url(#path-1-inside-1_53_584)"/>
<mask id="path-2-inside-2_53_584" fill="white">
<path d="M179.204 31.7321C184.027 19.5002 198.002 13.328 209.22 20.1862C225.687 30.2529 239.928 43.7223 250.935 59.7905C261.943 75.8586 269.359 94.0035 272.799 112.994C275.143 125.932 264.339 136.734 251.191 136.814C238.043 136.893 227.626 126.115 224.108 113.447C221.472 103.958 217.281 94.9139 211.654 86.7003C206.028 78.4867 199.108 71.3119 191.212 65.4271C180.669 57.5702 174.381 43.964 179.204 31.7321Z"/>
</mask>
<path d="M179.204 31.7321C184.027 19.5002 198.002 13.328 209.22 20.1862C225.687 30.2529 239.928 43.7223 250.935 59.7905C261.943 75.8586 269.359 94.0035 272.799 112.994C275.143 125.932 264.339 136.734 251.191 136.814C238.043 136.893 227.626 126.115 224.108 113.447C221.472 103.958 217.281 94.9139 211.654 86.7003C206.028 78.4867 199.108 71.3119 191.212 65.4271C180.669 57.5702 174.381 43.964 179.204 31.7321Z" stroke="#2BBA40" stroke-width="50" mask="url(#path-2-inside-2_53_584)"/>
<path fill-rule="evenodd" clip-rule="evenodd" d="M3.22684 107.886C6.05874 95.0467 20.1949 89.2511 32.3548 94.2527C44.5143 99.2544 49.9645 113.217 48.3206 126.262L48.2093 127.18C47.6784 131.773 47.5009 136.413 47.6848 141.057C48.1965 153.974 51.4888 166.63 57.3362 178.159C63.1837 189.688 71.449 199.821 81.5686 207.865C90.2376 214.756 100.094 219.973 110.631 223.274C111.962 224.461 113.332 225.65 114.737 226.829C122.839 233.625 132.386 240.356 142.451 244.661C152.487 248.953 163.838 251.161 174.932 247.622C180.512 245.842 186.589 242.39 190.915 239.695C193.16 238.297 195.095 237 196.472 236.051C197.162 235.574 197.716 235.182 198.104 234.905C198.298 234.766 198.451 234.657 198.558 234.579C198.612 234.54 198.654 234.508 198.685 234.486C198.7 234.475 198.713 234.466 198.722 234.459L198.738 234.447L198.74 234.446C198.74 234.445 198.741 234.444 194 228.001L198.741 234.445L209.071 226.846L197.703 220.91L184.591 214.061C185.939 213.232 187.267 212.368 188.573 211.467L189.565 210.772C199.773 203.518 208.35 194.213 214.748 183.458L215.361 182.413C217.683 178.386 219.684 174.197 221.35 169.884L221.679 169.019C226.289 156.706 237.606 146.878 250.698 148.104C263.788 149.331 273.608 161.035 270.145 173.718L269.85 174.78C266.765 185.733 262.323 196.292 256.606 206.204L255.669 207.802C245.881 224.255 232.761 238.489 217.145 249.586L215.627 250.648C199.874 261.526 182.016 268.998 163.197 272.578C144.377 276.158 125.023 275.766 106.376 271.432L104.574 271.001C85.9747 266.413 68.5449 257.991 53.3997 246.282L51.9407 245.138C36.9441 233.218 24.6097 218.298 15.721 201.343L14.8714 199.697C6.20584 182.612 1.20892 163.909 0.193637 144.793L0.107699 142.942C-0.359718 131.139 0.696914 119.358 3.22684 107.886ZM171.694 240.244C171.481 240.305 171.267 240.361 171.053 240.417L171.694 240.244Z" fill="#2BBA40"/>
<path d="M93.0005 193.185V170.961H116.934C124.392 170.961 129.855 169.653 133.323 167.039C136.965 164.424 138.786 159.979 138.786 153.704H104L113 142.592L104 131.48H138.786C138.786 125.205 136.965 120.76 133.323 118.146C129.855 115.531 124.392 114.224 116.934 114.224H93.0005V92H182.491V114.224H160.639C163.934 119.105 166.102 124.857 167.142 131.48H182.491L173.5 142.592L182.491 153.704H167.142C166.449 161.722 164.021 168.782 159.858 174.882C155.869 180.809 150.926 185.341 145.03 188.478C139.133 191.616 133.237 193.185 127.34 193.185L194 228C194 228 181.661 237.077 172.5 240C138.175 250.951 93.0005 193.185 93.0005 193.185Z" fill="white"/>
</svg>
