<svg width="21" height="23" viewBox="0 0 21 23" fill="none" xmlns="http://www.w3.org/2000/svg">
<path d="M13.3674 12.19C13.3674 12.373 13.2983 12.5485 13.1752 12.6779C13.0522 12.8073 12.8852 12.88 12.7112 12.88H6.97119C6.79714 12.88 6.63022 12.8073 6.50715 12.6779C6.38408 12.5485 6.31494 12.373 6.31494 12.19C6.31494 12.007 6.38408 11.8315 6.50715 11.7021C6.63022 11.5727 6.79714 11.5 6.97119 11.5H12.7112C12.8852 11.5 13.0522 11.5727 13.1752 11.7021C13.2983 11.8315 13.3674 12.007 13.3674 12.19ZM11.2412 8.97003C11.2412 9.15303 11.1721 9.32853 11.049 9.45793C10.9259 9.58733 10.759 9.66003 10.5849 9.66003H6.97119C6.79714 9.66003 6.63022 9.58733 6.50715 9.45793C6.38408 9.32853 6.31494 9.15303 6.31494 8.97003C6.31494 8.78703 6.38408 8.61153 6.50715 8.48213C6.63022 8.35273 6.79714 8.28003 6.97119 8.28003H10.5849C10.759 8.28003 10.9259 8.35273 11.049 8.48213C11.1721 8.61153 11.2412 8.78703 11.2412 8.97003Z" fill="#676767"/>
<path fill-rule="evenodd" clip-rule="evenodd" d="M1.75 10.5791C1.75 5.87887 5.37425 2.07007 9.84375 2.07007C14.3133 2.07007 17.9375 5.87887 17.9375 10.5782C17.9412 12.598 17.2578 14.5527 16.0108 16.089L19.0566 19.2906C19.1193 19.3542 19.1694 19.4304 19.2038 19.5145C19.2382 19.5987 19.2564 19.6892 19.2572 19.7808C19.258 19.8725 19.2414 19.9633 19.2084 20.0481C19.1755 20.133 19.1268 20.21 19.0652 20.2748C19.0036 20.3397 18.9304 20.3909 18.8497 20.4257C18.7691 20.4604 18.6827 20.4779 18.5956 20.4771C18.5084 20.4764 18.4223 20.4574 18.3422 20.4213C18.2621 20.3851 18.1897 20.3326 18.1291 20.2667L15.0824 17.0642C13.6213 18.3735 11.7634 19.0906 9.84375 19.0864C5.37425 19.0864 1.75 15.2785 1.75 10.5791ZM9.84375 3.45007C8.94429 3.43487 8.05094 3.60802 7.21575 3.95942C6.38056 4.31083 5.62023 4.83346 4.97904 5.49688C4.33786 6.16029 3.82864 6.95123 3.48105 7.82362C3.13346 8.696 2.95445 9.63239 2.95445 10.5782C2.95445 11.5241 3.13346 12.4605 3.48105 13.3328C3.82864 14.2052 4.33786 14.9962 4.97904 15.6596C5.62023 16.323 6.38056 16.8456 7.21575 17.197C8.05094 17.5484 8.94429 17.7216 9.84375 17.7064C10.7432 17.7216 11.6366 17.5484 12.4717 17.197C13.3069 16.8456 14.0673 16.323 14.7085 15.6596C15.3496 14.9962 15.8589 14.2052 16.2065 13.3328C16.554 12.4605 16.7331 11.5241 16.7331 10.5782C16.7331 9.63239 16.554 8.696 16.2065 7.82362C15.8589 6.95123 15.3496 6.16029 14.7085 5.49688C14.0673 4.83346 13.3069 4.31083 12.4717 3.95942C11.6366 3.60802 10.7432 3.43487 9.84375 3.45007Z" fill="#676767"/>
</svg>
