<svg width="18" height="18" viewBox="0 0 18 18" fill="none" xmlns="http://www.w3.org/2000/svg">
<path fill-rule="evenodd" clip-rule="evenodd" d="M5.79701 5.67674L6.69361 2.98942L3.97704 0.274373C4.53144 0.0975123 5.12408 2.44059e-07 5.73775 2.44059e-07C6.63356 -0.00026109 7.51697 0.209354 8.3172 0.612047C9.11742 1.01474 9.8122 1.59931 10.3459 2.31892C10.8795 3.03852 11.2372 3.87315 11.3903 4.75591C11.5433 5.63867 11.4875 6.54502 11.2273 7.40232L17.2081 13.384C17.4592 13.6351 17.6583 13.9332 17.7942 14.2613C17.9301 14.5893 18 14.9409 18 15.296C18 15.6511 17.9301 16.0027 17.7942 16.3308C17.6583 16.6588 17.4592 16.9569 17.2081 17.208C16.9571 17.4591 16.659 17.6583 16.331 17.7942C16.003 17.9301 15.6514 18 15.2964 18C14.9414 18 14.5898 17.9301 14.2618 17.7942C13.9338 17.6583 13.6357 17.4591 13.3847 17.208L7.40382 11.2263C6.40222 11.531 5.33635 11.5556 4.32175 11.2975C3.30715 11.0395 2.38253 10.5086 1.6481 9.76247C0.913665 9.01631 0.397448 8.08333 0.155399 7.06467C-0.0866504 6.046 -0.0452978 4.9805 0.274974 3.98366L2.98868 6.69201L5.67753 5.79624L5.79701 5.67674Z" fill="#FF5656"/>
</svg>
