<svg width="25" height="25" viewBox="0 0 25 25" fill="none" xmlns="http://www.w3.org/2000/svg">
<g filter="url(#filter0_d_42_615)">
<path d="M8.76 6.8C8.76 6.52948 8.86746 6.27004 9.05875 6.07875C9.25004 5.88746 9.50948 5.78 9.78 5.78H15.22C15.4905 5.78 15.75 5.88746 15.9412 6.07875C16.1325 6.27004 16.24 6.52948 16.24 6.8C16.24 7.07052 16.1325 7.32996 15.9412 7.52125C15.75 7.71253 15.4905 7.82 15.22 7.82H9.78C9.50948 7.82 9.25004 7.71253 9.05875 7.52125C8.86746 7.32996 8.76 7.07052 8.76 6.8ZM11.48 9.18H9.78C9.50948 9.18 9.25004 9.28746 9.05875 9.47875C8.86746 9.67004 8.76 9.92948 8.76 10.2C8.76 10.4705 8.86746 10.73 9.05875 10.9212C9.25004 11.1125 9.50948 11.22 9.78 11.22H11.48C11.7505 11.22 12.01 11.1125 12.2012 10.9212C12.3925 10.73 12.5 10.4705 12.5 10.2C12.5 9.92948 12.3925 9.67004 12.2012 9.47875C12.01 9.28746 11.7505 9.18 11.48 9.18ZM21 1.7V10.9386C21.0006 11.162 20.9569 11.3832 20.8714 11.5895C20.7859 11.7958 20.6603 11.9831 20.5019 12.1405L16.1405 16.5019C15.9831 16.6603 15.7958 16.7859 15.5895 16.8714C15.3832 16.9569 15.162 17.0006 14.9386 17H5.7C5.24913 17 4.81673 16.8209 4.49792 16.5021C4.17911 16.1833 4 15.7509 4 15.3V1.7C4 1.24913 4.17911 0.81673 4.49792 0.497918C4.81673 0.179107 5.24913 0 5.7 0H19.3C19.7509 0 20.1833 0.179107 20.5021 0.497918C20.8209 0.81673 21 1.24913 21 1.7ZM6.04 14.96H13.86V10.88C13.86 10.6095 13.9675 10.35 14.1587 10.1587C14.35 9.96746 14.6095 9.86 14.88 9.86H18.96V2.04H6.04V14.96ZM17.855 11.9H15.9V13.855L17.855 11.9Z" fill="#58E86E"/>
</g>
<defs>
<filter id="filter0_d_42_615" x="0" y="0" width="25" height="25" filterUnits="userSpaceOnUse" color-interpolation-filters="sRGB">
<feFlood flood-opacity="0" result="BackgroundImageFix"/>
<feColorMatrix in="SourceAlpha" type="matrix" values="0 0 0 0 0 0 0 0 0 0 0 0 0 0 0 0 0 0 127 0" result="hardAlpha"/>
<feOffset dy="4"/>
<feGaussianBlur stdDeviation="2"/>
<feComposite in2="hardAlpha" operator="out"/>
<feColorMatrix type="matrix" values="0 0 0 0 0 0 0 0 0 0 0 0 0 0 0 0 0 0 0.25 0"/>
<feBlend mode="normal" in2="BackgroundImageFix" result="effect1_dropShadow_42_615"/>
<feBlend mode="normal" in="SourceGraphic" in2="effect1_dropShadow_42_615" result="shape"/>
</filter>
</defs>
</svg>
