<svg width="18" height="22" viewBox="0 0 18 22" fill="none" xmlns="http://www.w3.org/2000/svg">
<path d="M11.9999 18C11.9999 18.7957 11.6838 19.5587 11.1212 20.1213C10.5586 20.6839 9.79552 21 8.99987 21C8.20422 21 7.44115 20.6839 6.87855 20.1213C6.31594 19.5587 5.99987 18.7957 5.99987 18M9.72087 4.00302L8.25487 4.00002C4.91087 3.99202 2.00787 6.70902 1.98487 10V13.79C1.98487 14.58 1.88487 15.351 1.45387 16.008L1.16687 16.446C0.729866 17.11 1.19987 18 1.98487 18H16.0149C16.7999 18 17.2689 17.11 16.8329 16.446L16.5459 16.008C16.1159 15.351 16.0149 14.579 16.0149 13.789V10.001C15.9749 6.70902 13.0649 4.01102 9.72087 4.00302Z" stroke="#DFDFDF" stroke-width="2" stroke-linecap="round" stroke-linejoin="round"/>
<path d="M8.99976 1C9.53019 1 10.0389 1.21071 10.414 1.58579C10.789 1.96086 10.9998 2.46957 10.9998 3V4H6.99976V3C6.99976 2.46957 7.21047 1.96086 7.58554 1.58579C7.96062 1.21071 8.46932 1 8.99976 1Z" stroke="#DFDFDF" stroke-width="2" stroke-linecap="round" stroke-linejoin="round"/>
</svg>
