<svg width="14" height="18" viewBox="0 0 14 18" fill="none" xmlns="http://www.w3.org/2000/svg">
<path fill-rule="evenodd" clip-rule="evenodd" d="M3.93879 3.02253C3.93879 2.22091 4.26131 1.45211 4.83539 0.885279C5.40948 0.318444 6.1881 0 6.99998 0C7.81186 0 8.59049 0.318444 9.16457 0.885279C9.73866 1.45211 10.0612 2.22091 10.0612 3.02253C10.0612 3.82415 9.73866 4.59295 9.16457 5.15978C8.59049 5.72662 7.81186 6.04506 6.99998 6.04506C6.1881 6.04506 5.40948 5.72662 4.83539 5.15978C4.26131 4.59295 3.93879 3.82415 3.93879 3.02253ZM0.978095 7.97347C1.60124 7.38939 2.42767 7.06376 3.28688 7.06376C4.14609 7.06376 4.97253 7.38939 5.59567 7.97347L5.60889 7.98653L6.99998 9.36005L8.3924 7.98653L8.40562 7.97347C9.02863 7.39015 9.8545 7.06499 10.7131 7.06499C11.5717 7.06499 12.3975 7.39015 13.0205 7.97347C13.3297 8.26345 13.5759 8.61242 13.7443 8.99921C13.9126 9.386 13.9996 9.80254 14 10.2235C14.0004 10.6445 13.9141 11.0612 13.7464 11.4483C13.5787 11.8354 13.3331 12.1848 13.0245 12.4753L7.46015 17.8153C7.33674 17.9337 7.17142 18 6.99932 18C6.82722 18 6.6619 17.9337 6.53849 17.8153L0.97545 12.4753C0.666966 12.1849 0.42144 11.8356 0.253763 11.4487C0.0860861 11.0618 -0.000246772 10.6453 5.29797e-07 10.2245C0.000247831 9.80363 0.0870702 9.38722 0.255202 9.00051C0.423333 8.61379 0.66927 8.26352 0.978095 7.97347Z" fill="#55DF69"/>
</svg>
