<svg width="20" height="16" viewBox="0 0 20 16" fill="none" xmlns="http://www.w3.org/2000/svg">
<path d="M17.8571 6.85C17.4069 6.64868 16.9204 6.54497 16.4286 6.54545H3.57143C3.07969 6.54496 2.59322 6.64851 2.14286 6.84955C1.50634 7.13296 0.964704 7.59905 0.584149 8.19083C0.203595 8.78262 0.000608235 9.47447 0 10.1818V15.2727C0 15.4656 0.0752549 15.6506 0.209209 15.787C0.343164 15.9234 0.524845 16 0.714286 16C0.903726 16 1.08541 15.9234 1.21936 15.787C1.35332 15.6506 1.42857 15.4656 1.42857 15.2727V14.9091C1.42973 14.813 1.46773 14.7212 1.53446 14.6533C1.60118 14.5853 1.69135 14.5466 1.78571 14.5455H18.2143C18.3086 14.5466 18.3988 14.5853 18.4655 14.6533C18.5323 14.7212 18.5703 14.813 18.5714 14.9091V15.2727C18.5714 15.4656 18.6467 15.6506 18.7806 15.787C18.9146 15.9234 19.0963 16 19.2857 16C19.4752 16 19.6568 15.9234 19.7908 15.787C19.9247 15.6506 20 15.4656 20 15.2727V10.1818C19.9993 9.47455 19.7963 8.78279 19.4157 8.1911C19.0352 7.5994 18.4936 7.13339 17.8571 6.85ZM15.3571 0H4.64286C3.97982 0 3.34393 0.268181 2.87509 0.745547C2.40625 1.22291 2.14286 1.87036 2.14286 2.54545V5.81818C2.14288 5.84636 2.14933 5.87414 2.1617 5.89934C2.17407 5.92455 2.19203 5.94648 2.21415 5.9634C2.23627 5.98033 2.26196 5.99179 2.28917 5.99688C2.31639 6.00197 2.3444 6.00055 2.37098 5.99273C2.76092 5.87661 3.16516 5.81783 3.57143 5.81818H3.76027C3.80434 5.81847 3.84697 5.80214 3.87993 5.77235C3.9129 5.74256 3.93388 5.70141 3.93884 5.65682C3.9778 5.30145 4.14396 4.97315 4.40558 4.7346C4.6672 4.49606 5.00595 4.364 5.35714 4.36364H7.85714C8.20856 4.36366 8.54764 4.49558 8.80955 4.73415C9.07145 4.97272 9.2378 5.30122 9.27679 5.65682C9.28174 5.70141 9.30272 5.74256 9.33569 5.77235C9.36866 5.80214 9.41128 5.81847 9.45536 5.81818H10.5473C10.5914 5.81847 10.634 5.80214 10.667 5.77235C10.7 5.74256 10.7209 5.70141 10.7259 5.65682C10.7648 5.30168 10.9308 4.97357 11.1921 4.73506C11.4535 4.49655 11.7919 4.36433 12.1429 4.36364H14.6429C14.9943 4.36366 15.3334 4.49558 15.5953 4.73415C15.8572 4.97272 16.0235 5.30122 16.0625 5.65682C16.0675 5.70141 16.0884 5.74256 16.1214 5.77235C16.1544 5.80214 16.197 5.81847 16.2411 5.81818H16.4286C16.8349 5.81798 17.2391 5.87691 17.629 5.99318C17.6556 6.00101 17.6837 6.00243 17.7109 5.99731C17.7382 5.9922 17.7639 5.9807 17.786 5.96372C17.8082 5.94674 17.8261 5.92475 17.8384 5.89949C17.8508 5.87423 17.8572 5.8464 17.8571 5.81818V2.54545C17.8571 1.87036 17.5938 1.22291 17.1249 0.745547C16.6561 0.268181 16.0202 0 15.3571 0Z" fill="#55DF69"/>
</svg>
