<svg width="19" height="19" viewBox="0 0 19 19" fill="none" xmlns="http://www.w3.org/2000/svg">
<path d="M15.2 15.2C14.1455 15.2 13.3 16.0455 13.3 17.1C13.3 17.6039 13.5002 18.0872 13.8565 18.4435C14.2128 18.7998 14.6961 19 15.2 19C15.7039 19 16.1872 18.7998 16.5435 18.4435C16.8998 18.0872 17.1 17.6039 17.1 17.1C17.1 16.5961 16.8998 16.1128 16.5435 15.7565C16.1872 15.4002 15.7039 15.2 15.2 15.2ZM0 0V1.9H1.9L5.32 9.1105L4.028 11.438C3.8855 11.704 3.8 12.0175 3.8 12.35C3.8 12.8539 4.00018 13.3372 4.3565 13.6935C4.71282 14.0498 5.19609 14.25 5.7 14.25H17.1V12.35H6.099C6.03601 12.35 5.9756 12.325 5.93106 12.2804C5.88652 12.2359 5.8615 12.1755 5.8615 12.1125C5.8615 12.065 5.871 12.027 5.89 11.9985L6.745 10.45H13.8225C14.535 10.45 15.162 10.051 15.485 9.4715L18.886 3.325C18.9525 3.173 19 3.0115 19 2.85C19 2.59804 18.8999 2.35641 18.7218 2.17825C18.5436 2.00009 18.302 1.9 18.05 1.9H3.9995L3.1065 0M5.7 15.2C4.6455 15.2 3.8 16.0455 3.8 17.1C3.8 17.6039 4.00018 18.0872 4.3565 18.4435C4.71282 18.7998 5.19609 19 5.7 19C6.20391 19 6.68718 18.7998 7.0435 18.4435C7.39982 18.0872 7.6 17.6039 7.6 17.1C7.6 16.5961 7.39982 16.1128 7.0435 15.7565C6.68718 15.4002 6.20391 15.2 5.7 15.2Z" fill="#FF5656"/>
</svg>
