<svg width="16" height="16" viewBox="0 0 16 16" fill="none" xmlns="http://www.w3.org/2000/svg">
<path d="M1.608 3.2016H14.408V4.8024H1.608V3.2016ZM3.208 0H12.808V1.6008H3.208V0ZM14.4 6.3952H1.6C1.17565 6.3952 0.768687 6.56385 0.468629 6.86406C0.168571 7.16427 0 7.57144 0 7.996V14.3992C0 14.8238 0.168571 15.2309 0.468629 15.5311C0.768687 15.8313 1.17565 16 1.6 16H14.4C14.8243 16 15.2313 15.8313 15.5314 15.5311C15.8314 15.2309 16 14.8238 16 14.3992V7.996C16 7.57144 15.8314 7.16427 15.5314 6.86406C15.2313 6.56385 14.8243 6.3952 14.4 6.3952ZM6.64 14.3992L4 11.8059L5.12 10.6853L6.64 12.2061L10.88 7.96398L12 9.08454L6.64 14.3992Z" fill="#FF5656"/>
</svg>
