<svg width="18" height="18" viewBox="0 0 18 18" fill="none" xmlns="http://www.w3.org/2000/svg">
<path d="M11.4975 13.9725C11.6325 13.8375 11.7 13.68 11.7 13.5C11.7 13.32 11.6325 13.1625 11.4975 13.0275C11.3625 12.8925 11.205 12.825 11.025 12.825C10.845 12.825 10.6875 12.8925 10.5525 13.0275C10.4175 13.1625 10.35 13.32 10.35 13.5C10.35 13.68 10.4175 13.8375 10.5525 13.9725C10.6875 14.1075 10.845 14.175 11.025 14.175C11.205 14.175 11.3625 14.1075 11.4975 13.9725ZM13.9725 13.9725C14.1075 13.8375 14.175 13.68 14.175 13.5C14.175 13.32 14.1075 13.1625 13.9725 13.0275C13.8375 12.8925 13.68 12.825 13.5 12.825C13.32 12.825 13.1625 12.8925 13.0275 13.0275C12.8925 13.1625 12.825 13.32 12.825 13.5C12.825 13.68 12.8925 13.8375 13.0275 13.9725C13.1625 14.1075 13.32 14.175 13.5 14.175C13.68 14.175 13.8375 14.1075 13.9725 13.9725ZM16.4475 13.9725C16.5825 13.8375 16.65 13.68 16.65 13.5C16.65 13.32 16.5825 13.1625 16.4475 13.0275C16.3125 12.8925 16.155 12.825 15.975 12.825C15.795 12.825 15.6375 12.8925 15.5025 13.0275C15.3675 13.1625 15.3 13.32 15.3 13.5C15.3 13.68 15.3675 13.8375 15.5025 13.9725C15.6375 14.1075 15.795 14.175 15.975 14.175C16.155 14.175 16.3125 14.1075 16.4475 13.9725ZM13.5 18C12.255 18 11.1939 17.5611 10.3167 16.6833C9.4395 15.8055 9.0006 14.7444 9 13.5C8.9994 12.2556 9.4383 11.1945 10.3167 10.3167C11.1951 9.4389 12.2562 9 13.5 9C14.7438 9 15.8052 9.4389 16.6842 10.3167C17.5632 11.1945 18.0018 12.2556 18 13.5C17.9982 14.7444 17.5593 15.8058 16.6833 16.6842C15.8073 17.5626 14.7462 18.0012 13.5 18ZM4.5 5.4H11.7C11.955 5.4 12.1689 5.3136 12.3417 5.1408C12.5145 4.968 12.6006 4.7544 12.6 4.5C12.5994 4.2456 12.513 4.032 12.3408 3.8592C12.1686 3.6864 11.955 3.6 11.7 3.6H4.5C4.245 3.6 4.0314 3.6864 3.8592 3.8592C3.687 4.032 3.6006 4.2456 3.6 4.5C3.5994 4.7544 3.6858 4.9683 3.8592 5.1417C4.0326 5.3151 4.2462 5.4012 4.5 5.4ZM1.8 16.2C1.305 16.2 0.8814 16.0239 0.5292 15.6717C0.177 15.3195 0.0006 14.8956 0 14.4V1.8C0 1.305 0.1764 0.8814 0.5292 0.5292C0.882 0.177 1.3056 0.0006 1.8 0H14.4C14.895 0 15.3189 0.1764 15.6717 0.5292C16.0245 0.882 16.2006 1.3056 16.2 1.8V6.705C16.2 6.975 16.0875 7.185 15.8625 7.335C15.6375 7.485 15.3975 7.515 15.1425 7.425C14.8875 7.35 14.6211 7.2936 14.3433 7.2558C14.0655 7.218 13.7844 7.1994 13.5 7.2C13.335 7.2 13.1811 7.2039 13.0383 7.2117C12.8955 7.2195 12.7494 7.2381 12.6 7.2675C12.465 7.2375 12.315 7.2189 12.15 7.2117C11.985 7.2045 11.835 7.2006 11.7 7.2H4.5C4.245 7.2 4.0314 7.2864 3.8592 7.4592C3.687 7.632 3.6006 7.8456 3.6 8.1C3.5994 8.3544 3.6858 8.5683 3.8592 8.7417C4.0326 8.9151 4.2462 9.0012 4.5 9H9.1125C8.8425 9.255 8.5989 9.5325 8.3817 9.8325C8.1645 10.1325 7.9731 10.455 7.8075 10.8H4.5C4.245 10.8 4.0314 10.8864 3.8592 11.0592C3.687 11.232 3.6006 11.4456 3.6 11.7C3.5994 11.9544 3.6858 12.1683 3.8592 12.3417C4.0326 12.5151 4.2462 12.6012 4.5 12.6H7.2675C7.2375 12.75 7.2189 12.8964 7.2117 13.0392C7.2045 13.182 7.2006 13.3356 7.2 13.5C7.2 13.8 7.215 14.085 7.245 14.355C7.275 14.625 7.3275 14.8875 7.4025 15.1425C7.4775 15.3975 7.44 15.6375 7.29 15.8625C7.14 16.0875 6.9375 16.2 6.6825 16.2H1.8Z" fill="#FF5656"/>
</svg>
