<svg width="17" height="13" viewBox="0 0 17 13" fill="none" xmlns="http://www.w3.org/2000/svg">
<path d="M15.4375 0H6.5C6.28451 0 6.07785 0.0856026 5.92548 0.237976C5.7731 0.390349 5.6875 0.597012 5.6875 0.8125V9.75C5.6875 9.96549 5.7731 10.1722 5.92548 10.3245C6.07785 10.4769 6.28451 10.5625 6.5 10.5625H15.4375C15.653 10.5625 15.8597 10.4769 16.012 10.3245C16.1644 10.1722 16.25 9.96549 16.25 9.75V0.8125C16.25 0.597012 16.1644 0.390349 16.012 0.237976C15.8597 0.0856026 15.653 0 15.4375 0ZM0 10.5625H5.6875V4.875H2.84375L0 7.50019V10.5625Z" fill="#FF5656"/>
<path d="M5.6875 11.375C5.6875 11.806 5.51629 12.2193 5.21155 12.524C4.9068 12.8288 4.49348 13 4.0625 13C3.63152 13 3.2182 12.8288 2.91345 12.524C2.6087 12.2193 2.4375 11.806 2.4375 11.375M14.625 11.375C14.625 11.806 14.4538 12.2193 14.149 12.524C13.8443 12.8288 13.431 13 13 13C12.569 13 12.1557 12.8288 11.851 12.524C11.5462 12.2193 11.375 11.806 11.375 11.375" fill="#FF5656"/>
</svg>
