<svg width="18" height="18" viewBox="0 0 18 18" fill="none" xmlns="http://www.w3.org/2000/svg">
<path d="M7.23823 7.525L0.988235 4.825C0.588235 4.64167 0.342569 4.34567 0.251235 3.937C0.159902 3.52833 0.272235 3.166 0.588235 2.85L0.988235 2.45C1.12157 2.31667 1.28424 2.21667 1.47624 2.15C1.66824 2.08333 1.8639 2.06667 2.06324 2.1L11.0632 3.7L14.1632 0.575C14.5466 0.191667 15.0176 0 15.5762 0C16.1349 0 16.6056 0.191667 16.9882 0.575C17.3709 0.958333 17.5626 1.42933 17.5632 1.988C17.5639 2.54667 17.3722 3.01733 16.9882 3.4L13.8882 6.525L15.4632 15.5C15.4966 15.7 15.4839 15.9 15.4252 16.1C15.3666 16.3 15.2709 16.4667 15.1382 16.6L14.7382 16.975C14.4216 17.2917 14.0549 17.4083 13.6382 17.325C13.2216 17.2417 12.9216 17 12.7382 16.6L10.0632 10.35L7.51324 12.875L8.06324 15.975C8.09657 16.1417 8.08823 16.3043 8.03823 16.463C7.98823 16.6217 7.9049 16.759 7.78824 16.875L7.36323 17.3C7.1299 17.5333 6.84257 17.625 6.50124 17.575C6.1599 17.525 5.90557 17.35 5.73823 17.05L3.91324 13.675L0.538235 11.85C0.238235 11.6833 0.0632353 11.4293 0.0132353 11.088C-0.0367647 10.7467 0.0549021 10.459 0.288235 10.225L0.713235 9.8C0.829902 9.68333 0.967569 9.6 1.12624 9.55C1.2849 9.5 1.44724 9.49167 1.61324 9.525L4.68824 10.05L7.23823 7.525Z" fill="#55DF69"/>
</svg>
