<svg width="20" height="12" viewBox="0 0 20 12" fill="none" xmlns="http://www.w3.org/2000/svg">
<path fill-rule="evenodd" clip-rule="evenodd" d="M2.50815 11.568C2.23261 11.8446 1.85891 12 1.46924 12C1.07957 12 0.705866 11.8446 0.43033 11.568C0.154794 11.2914 0 10.9163 0 10.5252C0 10.134 0.154794 9.75889 0.43033 9.48231L5.32458 4.57091L5.33486 4.56059C5.73474 4.16744 6.27219 3.94725 6.83192 3.94725C7.39165 3.94725 7.9291 4.16744 8.32898 4.56059L8.33926 4.57091L10.837 7.0782L14.2834 3.4197L12.7563 1.88673C12.6024 1.73213 12.4977 1.53523 12.4553 1.32091C12.4129 1.10659 12.4347 0.884465 12.518 0.682579C12.6012 0.480694 12.7422 0.308109 12.9232 0.186621C13.1041 0.0651332 13.3169 0.000192192 13.5345 0H18.8987C19.1908 0 19.4709 0.116473 19.6774 0.323796C19.884 0.531118 20 0.812309 20 1.10551V6.48859C19.9998 6.7071 19.9351 6.92065 19.8141 7.10227C19.6931 7.28389 19.5211 7.42544 19.32 7.50903C19.1189 7.59262 18.8976 7.61451 18.6841 7.57194C18.4706 7.52936 18.2744 7.42423 18.1204 7.26982L16.3612 5.50395L12.3906 9.7211L12.351 9.7609C11.9511 10.154 11.4137 10.3742 10.8539 10.3742C10.2942 10.3742 9.75675 10.154 9.35687 9.7609L9.34659 9.75058L6.83119 7.22707L2.50815 11.568Z" fill="#55DF69"/>
</svg>
