<svg width="19" height="19" viewBox="0 0 19 19" fill="none" xmlns="http://www.w3.org/2000/svg">
<path d="M14.7336 19H16.1673C16.8927 19 17.4886 18.4386 17.575 17.7305L19 3.49773H14.6818V0H12.9805V3.49773H8.68818L8.94727 5.51864C10.4241 5.92455 11.8059 6.65864 12.635 7.47045C13.8786 8.69682 14.7336 9.96636 14.7336 12.0391V19ZM0 18.1364V17.2727H12.9805V18.1364C12.9805 18.6027 12.5918 19 12.0909 19H0.863636C0.388636 19 0 18.6027 0 18.1364ZM12.9805 12.0909C12.9805 5.18182 0 5.18182 0 12.0909H12.9805ZM0 13.8182H12.9545V15.5455H0V13.8182Z" fill="#FF5656"/>
</svg>
